<svg width="303" height="144" fill="none" xmlns="http://www.w3.org/2000/svg"><rect x="30" width="26" height="42" rx="13" fill="#415148"/><path fill-rule="evenodd" clip-rule="evenodd" d="M37.554 1.963C35.904 2.715 33.446 4.463 32 6c-1.446 1.537-1.946 4.743-2 6-.054 1.257-.74 27.414-.74 27.414-.277 28.924-.173 31.046 1.819 37.245 3.85 11.985 14.155 22.178 25.858 25.58 7.972 2.318 19.956 1.488 27.335-1.894 28.605-13.108 30.474-52.312 3.257-68.32-8.32-4.892-20.704-6.477-30.128-3.856-2.087.58-2.165.285-2.5-9.478-.345-10.011-.37-10.1-3.847-13.525C46.959 1.132 43 .5 37.554 1.963zm82.813-.286c-3.868 1.132-6.948 4.84-8.353 10.057-.671 2.49-.941 18.008-.753 43.165.325 43.553.165 42.503 7.097 46.73 5.85 3.567 13.292 1.554 17.392-4.702 1.667-2.544 1.804-5.958 1.804-44.798 0-39.005-.132-42.238-1.819-44.725-3.533-5.204-9.524-7.436-15.368-5.727zm134.56 26.846c-10.648 2.077-22.435 11.396-27.525 21.76C225.577 54 224.554 58 224.554 66.1c0 9.272 1.173 12.4 3.241 16.605 7.651 15.554 24.621 24.408 41.634 21.723 3.231-.51 6.115-.686 6.41-.391 1.064 1.064-1.991 8.834-4.324 10.996-1.313 1.218-4.171 2.748-6.351 3.401-8.114 2.431-11.892 10.737-8.187 18 2.786 5.461 6.923 7.566 13.371 6.803 14.747-1.747 28.457-15.964 30.762-31.902 1.566-10.832 1.166-47.48-.593-54.232-5.206-19.987-25.246-32.55-45.59-28.58zM74.755 54.545c6.884 4.197 8.178 13.426 2.686 19.158-6.522 6.807-16.576 5.219-20.99-3.316-4.092-7.915 2.349-17.795 11.603-17.795 1.925 0 4.94.879 6.7 1.953zm192.663.419c7.216 3.015 10.021 10.13 6.698 16.992-3.892 8.04-13.457 9.822-20.235 3.766-6.261-5.594-4.312-17.283 3.443-20.654 4.119-1.791 6.01-1.811 10.094-.104zM7.468 79.967C.649 83.023-2.046 91.22 1.69 97.545c6.262 10.601 22.375 6.3 22.545-6.017.12-8.74-9.011-15.035-16.766-11.561z" fill="#415148"/><path fill-rule="evenodd" clip-rule="evenodd" d="M181.054 105.585c22.091 0 40-17.909 40-40 0-22.092-17.909-40-40-40-22.092 0-40 17.908-40 40a39.82 39.82 0 008.093 24.127l-6.093 16.873 17.237-6.804a39.816 39.816 0 0020.763 5.804z" fill="#98D4CD"/><rect x="111" width="26" height="105" rx="13" fill="#415148"/></svg>